# xmcd
#
# Track frame offsets: 
#        150
#        9586
#        34383
#        55229
#        78028
#        104682
#        119153
#        137019
#        159034
#        186306
#        204845
#
# Disc length: 2901 seconds
#
# Revision: 1
# Processed by: cddbd v1.5.2PL0 Copyright (c) Steve Scherf et al.
# Submitted via: ExactAudioCopy v1.0b2
#
DISCID=8f0b530b
DTITLE=Ultima Thule - Jälgede jälgedes
DYEAR=2010
DGENRE=Rock
TTITLE0=Linnutee liiprite all
TTITLE1=Elan välja
TTITLE2=Päästeingel
TTITLE3=Pilv
TTITLE4=Jälgede jälgedes
TTITLE5=Võitluslauluke
TTITLE6=Kandideerin
TTITLE7=Varavalmik
TTITLE8=Homme kell pool ükskõik
TTITLE9=Helemeelne
TTITLE10=Armetuim
EXTD=
EXTT0=
EXTT1=
EXTT2=
EXTT3=
EXTT4=
EXTT5=
EXTT6=
EXTT7=
EXTT8=
EXTT9=
EXTT10=
PLAYORDER=
